<svg width="1874" height="715" viewBox="0 0 1874 715" fill="none" xmlns="http://www.w3.org/2000/svg">
<path fill-rule="evenodd" clip-rule="evenodd" d="M357.5 715C554.941 715 715 554.941 715 357.5C715 160.059 554.941 0 357.5 0C160.059 0 0 160.059 0 357.5C0 418.498 15.2764 475.928 42.2129 526.172V217.914H114.479V245.014C120.826 240.619 128.313 236.469 136.939 232.562C145.565 228.656 154.843 225.238 164.771 222.309C174.7 219.379 184.954 217.1 195.533 215.473C206.112 213.682 216.692 212.787 227.271 212.787C251.686 212.787 274.065 216.367 294.41 223.529C314.918 230.691 332.496 240.781 347.145 253.803C361.793 266.824 373.187 282.449 381.324 300.678C389.625 318.744 393.775 338.764 393.775 360.736C393.775 383.686 389.462 404.438 380.836 422.992C372.21 441.385 360.247 457.172 344.947 470.355C329.811 483.377 311.744 493.467 290.748 500.629C269.915 507.627 247.291 511.127 222.877 511.127C212.46 511.127 202.125 510.477 191.871 509.174C181.78 507.871 172.015 506.082 162.574 503.803C153.297 501.523 144.508 498.838 136.207 495.746C128.069 492.49 120.826 488.992 114.479 485.248V619.697C178.26 678.842 263.657 715 357.5 715ZM137.672 430.316C129.534 426.248 121.803 421.283 114.479 415.424V315.57C120.338 309.549 127.174 304.096 134.986 299.213C142.962 294.33 151.425 290.18 160.377 286.762C169.491 283.344 178.932 280.74 188.697 278.949C198.463 276.996 208.229 276.02 217.994 276.02C233.294 276.02 247.047 278.299 259.254 282.855C271.624 287.25 282.122 293.354 290.748 301.166C299.537 308.816 306.21 317.768 310.768 328.021C315.487 338.275 317.848 349.18 317.848 360.736C317.848 373.105 315.487 384.58 310.768 395.16C306.048 405.74 299.212 414.936 290.26 422.748C281.471 430.561 270.565 436.746 257.545 441.303C244.687 445.697 229.957 447.895 213.355 447.895C205.218 447.895 196.835 447.324 188.209 446.186C179.583 444.883 171.038 442.93 162.574 440.326C154.11 437.723 145.81 434.385 137.672 430.316ZM464.723 390.766H435.816V506H464.723V428.363C466.871 426.15 469.28 424.164 471.949 422.406C474.684 420.648 477.581 419.15 480.641 417.914C483.766 416.678 486.988 415.732 490.309 415.082C493.694 414.365 497.047 414.008 500.367 414.008C505.771 414.008 510.719 414.92 515.211 416.742C519.769 418.5 523.642 421.104 526.832 424.555C530.087 427.939 532.594 432.139 534.352 437.152C536.175 442.1 537.086 447.732 537.086 454.047V506H565.895V428.168C567.782 425.76 569.996 423.676 572.535 421.918C575.074 420.096 577.776 418.598 580.641 417.426C583.57 416.254 586.565 415.408 589.625 414.887C591.062 414.611 592.483 414.4 593.892 414.254C595.482 414.09 597.056 414.008 598.609 414.008C603.948 414.008 608.831 414.92 613.258 416.742C617.75 418.5 621.591 421.104 624.781 424.555C628.036 427.939 630.543 432.139 632.301 437.152C634.124 442.1 635.035 447.732 635.035 454.047V506H663.844V449.359C663.844 439.398 662.347 430.643 659.352 423.09C656.422 415.473 652.223 409.125 646.754 404.047C641.351 398.969 634.808 395.16 627.125 392.621C619.442 390.018 610.882 388.715 601.441 388.715C596.949 388.715 592.587 389.041 588.355 389.691C584.124 390.277 579.957 391.287 575.855 392.719C571.754 394.086 567.652 395.908 563.551 398.188C560.617 399.77 557.65 401.619 554.65 403.734L554.01 404.189L553.102 404.85C552.678 405.16 552.254 405.477 551.829 405.797L551.051 406.391C545.582 400.467 539.007 396.039 531.324 393.109C523.642 390.18 515.211 388.715 506.031 388.715C499.456 388.715 492.718 389.594 485.816 391.352C478.98 393.045 471.949 396.104 464.723 400.531V390.766Z" fill="#00AB4D"/>
<path d="M877.8 475C867.6 475 858.1 472.3 849.3 466.9C840.7 461.3 833.7 453.3 828.3 442.9C823.1 432.3 820.5 419.5 820.5 404.5C820.5 392.1 822.8 379.5 827.4 366.7C832.2 353.7 839.4 341.8 849 331C858.6 320.2 870.7 311.5 885.3 304.9C899.9 298.3 917.2 295 937.2 295C940.4 295 943.5 295.1 946.5 295.3C949.7 295.5 953 295.8 956.4 296.2C956.6 294.8 957 292.3 957.6 288.7C958.4 284.9 958.9 282.3 959.1 280.9L942.3 256.9C952.9 250.7 963 245.5 972.6 241.3C982.2 237.1 991.8 235 1001.4 235C1009.8 235 1015.6 236.7 1018.8 240.1C1022.2 243.3 1023.9 248.7 1023.9 256.3C1023.9 263.3 1023 272.1 1021.2 282.7C1019.4 293.1 1017.2 304.5 1014.6 316.9C1012 329.1 1009.3 341.7 1006.5 354.7C1003.9 367.7 1001.7 380.2 999.9 392.2C998.1 404.2 997.2 415.1 997.2 424.9C997.2 434.3 997.9 441.9 999.3 447.7C1000.9 453.3 1003.3 457.5 1006.5 460.3C995.3 470.1 983.4 475 970.8 475C962.2 475 955.4 473.4 950.4 470.2C945.6 467 942.1 463.1 939.9 458.5C937.7 453.9 936.6 449.6 936.6 445.6L933.6 444.1C925.6 454.7 916.7 462.5 906.9 467.5C897.1 472.5 887.4 475 877.8 475ZM907.8 430C913 430 918.3 428.7 923.7 426.1C929.1 423.5 934.2 419.4 939 413.8C940.4 399 942.2 383.7 944.4 367.9C946.6 351.9 949.3 336.4 952.5 321.4C940.3 321.4 929.4 323.6 919.8 328C910.4 332.2 902.5 337.9 896.1 345.1C889.9 352.1 885.1 359.8 881.7 368.2C878.5 376.6 876.9 384.9 876.9 393.1C876.9 404.9 879.9 414 885.9 420.4C892.1 426.8 899.4 430 907.8 430ZM1130.71 475C1112.11 475 1096.41 471.7 1083.61 465.1C1070.81 458.5 1061.11 449.3 1054.51 437.5C1048.11 425.5 1044.91 411.7 1044.91 396.1C1044.91 379.9 1047.81 365.2 1053.61 352C1059.61 338.6 1067.91 327.1 1078.51 317.5C1089.11 307.9 1101.41 300.5 1115.41 295.3C1129.61 290.1 1144.91 287.5 1161.31 287.5C1180.71 287.5 1195.01 291.8 1204.21 300.4C1213.41 309 1218.01 319.8 1218.01 332.8C1218.01 344 1214.31 354.6 1206.91 364.6C1199.71 374.4 1188.01 382.4 1171.81 388.6C1155.61 394.6 1134.01 397.7 1107.01 397.9C1107.61 410.7 1110.51 420.8 1115.71 428.2C1121.11 435.4 1127.81 439 1135.81 439C1139.81 439 1144.01 438.1 1148.41 436.3C1152.81 434.3 1156.51 430.9 1159.51 426.1C1162.51 421.1 1164.01 414.3 1164.01 405.7C1177.61 405.7 1188.31 407.2 1196.11 410.2C1203.91 413.2 1207.81 418.6 1207.81 426.4C1207.81 433.6 1204.71 441 1198.51 448.6C1192.31 456 1183.41 462.3 1171.81 467.5C1160.41 472.5 1146.71 475 1130.71 475ZM1109.71 373.9C1124.31 372.7 1136.01 370 1144.81 365.8C1153.61 361.6 1160.01 356.8 1164.01 351.4C1168.01 346 1170.01 341 1170.01 336.4C1170.01 332.4 1168.81 329.1 1166.41 326.5C1164.01 323.9 1160.61 322.6 1156.21 322.6C1149.01 322.6 1142.31 325.1 1136.11 330.1C1129.91 335.1 1124.51 341.6 1119.91 349.6C1115.51 357.4 1112.11 365.5 1109.71 373.9ZM1313.18 475C1293.18 475 1278.78 471.9 1269.98 465.7C1261.38 459.3 1257.08 448.9 1257.08 434.5C1257.08 421.3 1257.28 407.2 1257.68 392.2C1258.08 377 1258.28 363.6 1258.28 352C1258.28 338.4 1256.68 327.6 1253.48 319.6C1250.48 311.4 1246.68 305 1242.08 300.4C1252.48 291.8 1263.88 287.5 1276.28 287.5C1287.48 287.5 1295.98 290.8 1301.78 297.4C1307.58 303.8 1311.48 312.6 1313.48 323.8C1315.68 335 1316.78 347.5 1316.78 361.3C1316.78 368.7 1316.68 377.1 1316.48 386.5C1316.48 395.7 1316.38 404.9 1316.18 414.1C1315.98 423.1 1315.68 431.2 1315.28 438.4H1325.48C1329.88 429 1334.68 418.7 1339.88 407.5C1345.08 396.1 1350.08 384.6 1354.88 373C1359.68 361.2 1363.58 350.2 1366.58 340C1369.58 329.6 1371.08 320.9 1371.08 313.9C1371.08 311.1 1370.78 308.6 1370.18 306.4C1369.78 304.2 1369.18 302.2 1368.38 300.4C1375.98 296 1383.18 292.8 1389.98 290.8C1396.98 288.6 1403.18 287.5 1408.58 287.5C1417.18 287.5 1423.18 290.1 1426.58 295.3C1430.18 300.5 1431.98 307.3 1431.98 315.7C1431.98 322.9 1430.38 331.5 1427.18 341.5C1424.18 351.5 1420.38 362 1415.78 373C1411.18 383.8 1406.58 394.2 1401.98 404.2C1397.38 414 1393.68 422.4 1390.88 429.4L1394.78 446.8C1389.38 451.6 1382.18 456.2 1373.18 460.6C1364.38 464.8 1354.68 468.2 1344.08 470.8C1333.68 473.6 1323.38 475 1313.18 475Z" fill="white"/>
<path d="M1544.64 530.018C1539.36 546.913 1521.38 556.323 1504.49 551.038C1487.6 545.756 1478.19 527.776 1483.47 510.885L1587.15 184.983C1592.44 168.09 1610.42 158.676 1627.31 163.96C1644.2 169.24 1653.61 187.222 1648.33 204.115L1544.64 530.018Z" fill="white"/>
<path d="M1706.93 497.1C1694 510.028 1673.04 510.028 1660.12 497.1C1647.19 484.177 1647.19 463.213 1660.12 450.291L1760.36 350.049C1773.28 337.123 1794.24 337.121 1807.17 350.049C1820.1 362.973 1820.1 383.936 1807.17 396.864L1747.87 456.015L1706.93 497.1Z" fill="white"/>
<path d="M1660.12 249.748C1673.04 236.82 1694 236.822 1706.93 249.748L1807.17 349.988C1819.83 362.644 1820.62 382.452 1808.49 395.429L1807.98 395.976L1807.31 396.642C1807.26 396.692 1807.22 396.747 1807.17 396.799C1807.12 396.855 1807.06 396.897 1807 396.951L1747.87 456.009C1779.71 424.171 1736.97 373.413 1736.97 373.413H1736.98L1660.12 296.559C1647.19 283.635 1647.19 262.675 1660.12 249.748Z" fill="white"/>
</svg>
