<svg width="500" height="500" viewBox="0 0 500 500" fill="none" xmlns="http://www.w3.org/2000/svg">
<g clip-path="url(#clip0_3010_19)">
<path d="M230.803 33.006L32.9764 230.669C30.4482 233.188 28.4422 236.182 27.0734 239.478C25.7046 242.774 25 246.308 25 249.877C25 253.446 25.7046 256.98 27.0734 260.277C28.4422 263.573 30.4482 266.566 32.9764 269.086L230.803 466.749C233.326 469.276 236.323 471.28 239.622 472.648C242.921 474.016 246.457 474.72 250.028 474.72C253.599 474.72 257.135 474.016 260.434 472.648C263.733 471.28 266.729 469.276 269.253 466.749L352.196 383.873C361.722 374.356 361.722 358.925 352.196 349.408C342.673 339.891 327.231 339.891 317.705 349.408L254.825 412.236C252.177 414.882 248.159 414.882 245.514 412.236L87.5343 254.388C84.8863 251.742 84.8863 247.73 87.5343 245.086L245.514 87.2357C248.162 84.59 252.177 84.59 254.825 87.2357L317.705 150.064C327.231 159.581 342.673 159.581 352.196 150.064C361.72 140.547 361.722 125.118 352.196 115.601L269.262 32.7321C258.582 22.3348 241.397 22.4208 230.803 33.006Z" fill="url(#paint0_linear_3010_19)"/>
<path d="M230.803 33.0071L32.9764 230.67C30.4482 233.189 28.4422 236.183 27.0734 239.479C25.7046 242.775 25 246.309 25 249.878C25 253.447 25.7046 256.981 27.0734 260.278C28.4422 263.574 30.4482 266.567 32.9764 269.087L230.803 466.75C233.326 469.277 236.323 471.281 239.622 472.649C242.921 474.017 246.457 474.721 250.028 474.721C253.599 474.721 257.135 474.017 260.434 472.649C263.733 471.281 266.729 469.277 269.253 466.75L352.196 383.874C361.722 374.357 361.722 358.926 352.196 349.409C342.673 339.892 327.231 339.892 317.705 349.409L254.825 412.237C252.177 414.883 248.159 414.883 245.514 412.237L87.5343 254.389C84.8863 251.743 84.8863 247.731 87.5343 245.087L245.514 87.2368C252.104 81.556 262.859 70.0452 278.652 67.3519C290.389 65.3534 303.22 69.7555 317.148 80.5625L269.26 32.7332C258.579 22.3359 241.395 22.4196 230.8 33.0048L230.803 33.0071Z" fill="url(#paint1_linear_3010_19)"/>
<path d="M371.345 331.026C380.869 340.543 396.311 340.543 405.837 331.026L467.022 269.891C477.659 259.263 477.659 242.098 467.022 231.475L405.303 170.028C395.756 160.522 380.31 160.533 370.779 170.057C361.253 179.574 361.253 195.003 370.779 204.519L412.464 246.17C415.112 248.816 415.112 252.831 412.464 255.474L371.345 296.561C361.819 306.078 361.819 321.509 371.345 331.026Z" fill="url(#paint2_linear_3010_19)"/>
<path d="M251.014 304.235C280.513 304.235 304.427 280.341 304.427 250.866C304.427 221.39 280.513 197.496 251.014 197.496C221.515 197.496 197.602 221.39 197.602 250.866C197.602 280.341 221.515 304.235 251.014 304.235Z" fill="url(#paint3_linear_3010_19)"/>
</g>
<defs>
<linearGradient id="paint0_linear_3010_19" x1="41552.4" y1="24.998" x2="79145.9" y2="22969" gradientUnits="userSpaceOnUse">
<stop stop-color="#4285EB"/>
<stop offset="1" stop-color="#2EC7FF"/>
</linearGradient>
<linearGradient id="paint1_linear_3010_19" x1="46595.7" y1="25.0009" x2="28025.7" y2="95943.1" gradientUnits="userSpaceOnUse">
<stop stop-color="#29CDFF"/>
<stop offset="0.379" stop-color="#148EFF"/>
<stop offset="1" stop-color="#0A60FF"/>
</linearGradient>
<linearGradient id="paint2_linear_3010_19" x1="15886.2" y1="-4382.01" x2="-8272.42" y2="33377.6" gradientUnits="userSpaceOnUse">
<stop stop-color="#FA816E"/>
<stop offset="0.415" stop-color="#F74A5C"/>
<stop offset="1" stop-color="#F51D2C"/>
</linearGradient>
<linearGradient id="paint3_linear_3010_19" x1="14753.5" y1="-7417.31" x2="6713.47" y2="24724.1" gradientUnits="userSpaceOnUse">
<stop stop-color="#FA8E7D"/>
<stop offset="0.513" stop-color="#F74A5C"/>
<stop offset="1" stop-color="#F51D2C"/>
</linearGradient>
<clipPath id="clip0_3010_19">
<rect width="500" height="500" fill="white"/>
</clipPath>
</defs>
</svg>
