<svg width="500" height="500" viewBox="0 0 500 500" fill="none" xmlns="http://www.w3.org/2000/svg">
<g clip-path="url(#clip0_3010_25)">
<path d="M190.32 81.25H296.304L186.279 407.247C183.963 414.119 177.523 418.741 170.266 418.741H87.7852C78.4664 418.741 70.9102 411.184 70.9102 401.866C70.9102 400.028 71.2102 398.209 71.7914 396.466L174.307 92.7531C176.623 85.8813 183.063 81.25 190.32 81.25Z" fill="url(#paint0_linear_3010_25)"/>
<path d="M344.331 299.91H176.265C171.971 299.901 168.484 303.388 168.475 307.682C168.475 309.848 169.365 311.91 170.95 313.382L278.95 414.182C282.09 417.116 286.234 418.748 290.537 418.748H385.703L344.331 299.91Z" fill="#0078D4"/>
<path d="M190.32 81.2501C182.979 81.222 176.482 85.9751 174.27 92.9689L71.9228 396.203C68.7822 404.959 73.3384 414.616 82.0947 417.756C83.9322 418.413 85.8728 418.75 87.8322 418.75H172.451C178.863 417.606 184.17 413.097 186.335 406.947L206.745 346.797L279.645 414.794C282.701 417.325 286.535 418.722 290.501 418.75H385.32L343.732 299.913L222.504 299.941L296.688 81.2501H190.32Z" fill="url(#paint1_linear_3010_25)"/>
<path d="M325.693 92.7344C323.377 85.8719 316.946 81.25 309.699 81.25H191.574C198.812 81.25 205.252 85.8719 207.559 92.725L310.074 396.466C313.055 405.297 308.312 414.869 299.48 417.85C297.746 418.45 295.927 418.75 294.09 418.75H412.215C421.534 418.75 429.09 411.194 429.09 401.866C429.09 400.028 428.79 398.209 428.199 396.475L325.693 92.7344Z" fill="url(#paint2_linear_3010_25)"/>
</g>
<defs>
<linearGradient id="paint0_linear_3010_25" x1="228.951" y1="106.265" x2="118.883" y2="431.431" gradientUnits="userSpaceOnUse">
<stop stop-color="#114A8B"/>
<stop offset="1" stop-color="#0669BC"/>
</linearGradient>
<linearGradient id="paint1_linear_3010_25" x1="263.331" y1="257.788" x2="237.872" y2="266.402" gradientUnits="userSpaceOnUse">
<stop stop-opacity="0.3"/>
<stop offset="0.071" stop-opacity="0.2"/>
<stop offset="0.321" stop-opacity="0.1"/>
<stop offset="0.623" stop-opacity="0.05"/>
<stop offset="1" stop-opacity="0"/>
</linearGradient>
<linearGradient id="paint2_linear_3010_25" x1="250.116" y1="96.4797" x2="370.937" y2="418.379" gradientUnits="userSpaceOnUse">
<stop stop-color="#3CCBF4"/>
<stop offset="1" stop-color="#2892DF"/>
</linearGradient>
<clipPath id="clip0_3010_25">
<rect width="500" height="500" fill="white"/>
</clipPath>
</defs>
</svg>
