<svg width="500" height="500" viewBox="0 0 500 500" fill="none" xmlns="http://www.w3.org/2000/svg">
<g clip-path="url(#clip0_3010_31)">
<mask id="mask0_3010_31" style="mask-type:luminance" maskUnits="userSpaceOnUse" x="25" y="71" width="450" height="359">
<path d="M475 71H25V429.56H475V71Z" fill="white"/>
</mask>
<g mask="url(#mask0_3010_31)">
<path fill-rule="evenodd" clip-rule="evenodd" d="M118.466 71.043C92.79 71.043 73.7907 93.5166 74.6415 117.889C75.458 141.304 74.3972 171.629 66.763 196.36C59.1016 221.16 46.1535 236.876 25 238.893V261.667C46.1535 263.689 59.1016 279.397 66.7621 304.2C74.3972 328.931 75.4571 359.257 74.6406 382.672C73.7898 407.04 92.7892 429.517 118.47 429.517H381.568C407.244 429.517 426.24 407.044 425.389 382.672C424.573 359.257 425.634 328.931 433.268 304.2C440.929 279.397 453.846 263.683 475 261.667V238.893C453.846 236.871 440.93 221.164 433.268 196.36C425.633 171.633 424.573 141.304 425.389 117.889C426.24 93.5201 407.244 71.043 381.568 71.043H118.463H118.466ZM330.085 291.707C330.085 325.267 305.053 345.619 263.511 345.619H192.796C190.774 345.619 188.834 344.816 187.403 343.386C185.973 341.955 185.169 340.015 185.169 337.992V162.569C185.169 160.546 185.973 158.606 187.403 157.176C188.834 155.745 190.774 154.942 192.796 154.942H263.109C297.747 154.942 320.48 173.704 320.48 202.512C320.48 222.731 305.187 240.832 285.705 244.003V245.058C312.227 247.967 330.085 266.336 330.085 291.707ZM255.801 179.119H215.48V236.073H249.44C275.693 236.073 290.169 225.501 290.169 206.605C290.166 188.897 277.721 179.119 255.801 179.119ZM215.48 258.67V321.434H257.284C284.618 321.434 299.097 310.466 299.097 289.854C299.097 269.242 284.212 258.667 255.527 258.667H215.48V258.67Z" fill="#7952B3"/>
</g>
</g>
<defs>
<clipPath id="clip0_3010_31">
<rect width="500" height="500" fill="white"/>
</clipPath>
</defs>
</svg>
