<svg width="500" height="500" viewBox="0 0 500 500" fill="none" xmlns="http://www.w3.org/2000/svg">
<path d="M423.103 151.998H417.153C409.796 151.998 402.866 155.428 398.393 161.266L337.493 240.905L276.593 161.266C272.134 155.428 265.197 151.998 257.847 151.998H251.897L328.694 252.42L250.252 354.998H256.202C263.559 354.998 270.489 351.568 274.955 345.73L337.5 263.942L400.045 345.73C404.511 351.568 411.441 354.998 418.798 354.998H424.748L346.306 252.42L423.103 151.998ZM224.023 314.692C206.145 341.859 170.949 355.782 137.3 343.504C107.697 332.703 89 303.275 89 271.761V263.998H173H250V235.06C250 189.525 216.274 149.66 170.935 145.397C118.911 140.504 75 181.468 75 232.498V271.509C75 309.106 97.505 344.057 132.883 356.79C179.104 373.422 227.719 348.6 244.155 305.998H239.689C233.312 305.998 227.523 309.365 224.023 314.692ZM89 232.498C89 191.968 121.97 158.998 162.5 158.998C203.03 158.998 236 191.968 236 232.498V249.998H89V232.498Z" fill="#599636"/>
</svg>
