<svg width="500" height="500" viewBox="0 0 500 500" fill="none" xmlns="http://www.w3.org/2000/svg">
<g clip-path="url(#clip0_3010_47)">
<mask id="mask0_3010_47" style="mask-type:luminance" maskUnits="userSpaceOnUse" x="117" y="50" width="266" height="401">
<path d="M383 50H117V450.146H383V50Z" fill="white"/>
</mask>
<g mask="url(#mask0_3010_47)">
<path d="M250 250.074C250 213.242 279.767 183.383 316.487 183.383C353.206 183.383 382.973 213.242 382.973 250.074C382.973 286.907 353.206 316.765 316.487 316.765C279.767 316.765 250 286.907 250 250.074Z" fill="#1ABCFE"/>
<path d="M117.027 383.457C117.027 346.625 146.794 316.766 183.514 316.766H250.001V383.457C250.001 420.289 220.234 450.148 183.514 450.148C146.794 450.148 117.027 420.289 117.027 383.457Z" fill="#0ACF83"/>
<path d="M250 50V183.381H316.487C353.207 183.381 382.973 153.523 382.973 116.69C382.973 79.8574 353.207 50 316.487 50H250Z" fill="#FF7262"/>
<path d="M117.025 116.691C117.025 153.524 146.792 183.382 183.512 183.382H249.999V50H183.512C146.792 50 117.025 79.8592 117.025 116.691Z" fill="#F24E1E"/>
<path d="M117.027 250.074C117.027 286.907 146.794 316.765 183.514 316.765H250.001V183.383H183.514C146.794 183.383 117.027 213.242 117.027 250.074Z" fill="#A259FF"/>
</g>
</g>
<defs>
<clipPath id="clip0_3010_47">
<rect width="500" height="500" fill="white"/>
</clipPath>
</defs>
</svg>
