<svg width="500" height="500" viewBox="0 0 500 500" fill="none" xmlns="http://www.w3.org/2000/svg">
<g clip-path="url(#clip0_3010_86)">
<path d="M90.5128 364.997L74.4258 355.71L253.636 45.3164L269.723 54.6043L90.5128 364.997Z" fill="#E535AB"/>
<path d="M70.7266 330.891H429.148V349.466H70.7266V330.891Z" fill="#E535AB"/>
<path d="M257.104 444.844L77.8262 341.335L87.114 325.248L266.392 428.757L257.104 444.844ZM412.842 175.073L233.564 71.5636L242.852 55.4766L422.13 158.986L412.842 175.073Z" fill="#E535AB"/>
<path d="M87.1628 174.997L77.875 158.911L257.153 55.4023L266.441 71.4882L87.1628 174.997Z" fill="#E535AB"/>
<path d="M409.54 365.001L230.33 54.6082L246.417 45.3203L425.627 355.714L409.54 365.001ZM84.9492 146.61H103.525V353.629H84.9492V146.61Z" fill="#E535AB"/>
<path d="M396.486 146.59H415.062V353.608H396.486V146.59Z" fill="#E535AB"/>
<path d="M253.931 436.984L245.818 422.931L401.742 332.906L409.855 346.958L253.931 436.984Z" fill="#E535AB"/>
<path d="M439.673 359.655C428.931 378.343 404.984 384.721 386.296 373.979C367.609 363.236 361.23 339.289 371.973 320.602C382.715 301.914 406.662 295.536 425.35 306.278C444.149 317.133 450.528 340.968 439.673 359.655ZM127.915 179.606C117.173 198.293 93.2257 204.672 74.5381 193.929C55.8505 183.186 49.4721 159.239 60.2147 140.552C70.9573 121.864 94.9042 115.486 113.592 126.228C132.279 137.083 138.658 160.918 127.915 179.606ZM60.3266 359.655C49.584 340.968 55.9624 317.133 74.65 306.278C93.3376 295.536 117.173 301.914 128.027 320.602C138.77 339.289 132.391 363.124 113.704 373.979C94.9042 384.721 71.0692 378.343 60.3266 359.655ZM372.085 179.606C361.342 160.918 367.721 137.083 386.408 126.228C405.096 115.486 428.931 121.864 439.785 140.552C450.528 159.239 444.149 183.074 425.462 193.929C406.774 204.672 382.827 198.293 372.085 179.606ZM250 469.207C228.403 469.207 210.946 451.751 210.946 430.153C210.946 408.556 228.403 391.1 250 391.1C271.597 391.1 289.054 408.556 289.054 430.153C289.054 451.639 271.597 469.207 250 469.207ZM250 109.107C228.403 109.107 210.946 91.6507 210.946 70.0537C210.946 48.4567 228.403 31 250 31C271.597 31 289.054 48.4567 289.054 70.0537C289.054 91.6507 271.597 109.107 250 109.107Z" fill="#E535AB"/>
</g>
<defs>
<clipPath id="clip0_3010_86">
<rect width="500" height="500" fill="white"/>
</clipPath>
</defs>
</svg>
