<svg width="500" height="500" viewBox="0 0 500 500" fill="none" xmlns="http://www.w3.org/2000/svg">
<g clip-path="url(#clip0_3010_100)">
<mask id="mask0_3010_100" style="mask-type:luminance" maskUnits="userSpaceOnUse" x="63" y="63" width="374" height="374">
<path d="M437 63H63V437H437V63Z" fill="white"/>
</mask>
<g mask="url(#mask0_3010_100)">
<path d="M63 63H437V437H63V63Z" fill="#F0DB4F"/>
<path d="M406.392 347.801C403.654 330.737 392.527 316.41 359.571 303.043C348.124 297.781 335.36 294.013 331.556 285.338C330.206 280.29 330.028 277.445 330.881 274.388C333.334 264.469 345.172 261.377 354.558 264.221C360.602 266.247 366.326 270.905 369.774 278.335C385.914 267.883 385.879 267.953 397.149 260.773C393.025 254.373 390.82 251.422 388.118 248.685C378.413 237.841 365.188 232.26 344.035 232.687C340.373 233.149 336.676 233.647 333.014 234.109C322.456 236.775 312.394 242.321 306.493 249.751C288.788 269.838 293.836 304.998 315.38 319.467C336.605 335.395 367.783 339.021 371.765 353.917C375.64 372.155 358.362 378.056 341.191 375.959C328.534 373.328 321.496 366.893 313.888 355.197C299.88 363.303 299.88 363.303 285.482 371.586C288.895 379.051 292.486 382.429 298.21 388.899C325.3 416.381 393.096 415.029 405.254 373.435C405.752 372.012 409.023 362.485 406.392 347.801ZM266.32 234.891H231.337C231.337 265.109 231.196 295.115 231.196 325.333C231.196 344.567 232.19 362.2 229.062 367.604C223.943 378.233 210.682 376.918 204.638 374.856C198.488 371.834 195.36 367.532 191.734 361.453C190.738 359.711 189.992 358.361 189.742 358.254C180.25 364.049 170.793 369.878 161.301 375.674C166.03 385.379 172.998 393.805 181.921 399.28C195.253 407.278 213.17 409.732 231.906 405.43C244.1 401.875 254.624 394.516 260.134 383.317C268.097 368.635 266.391 350.859 266.32 331.199C266.498 299.132 266.32 267.065 266.32 234.891Z" fill="#323330"/>
</g>
</g>
<defs>
<clipPath id="clip0_3010_100">
<rect width="500" height="500" fill="white"/>
</clipPath>
</defs>
</svg>
