<svg width="500" height="500" viewBox="0 0 500 500" fill="none" xmlns="http://www.w3.org/2000/svg">
<path d="M230.104 65.0078L240.94 85.3599C243.376 89.1156 246.015 92.44 249.124 95.536C258.238 104.536 266.733 114.142 274.552 124.288C292.912 148.396 305.295 175.168 314.139 204.123C319.443 221.811 322.323 239.955 322.539 258.302C323.427 313.154 304.623 360.253 266.71 399.397C260.543 405.604 253.881 411.299 246.789 416.425C243.034 416.425 241.257 413.544 239.709 410.893C236.89 405.975 235.014 400.575 234.177 394.969C232.845 388.333 231.969 381.697 232.401 374.845V371.749C232.096 371.089 228.785 66.5684 230.104 65.0078Z" fill="#599636"/>
<path d="M230.105 64.3311C229.661 63.4429 229.217 64.1154 228.773 64.5468C228.988 68.9877 227.44 72.9465 225.017 76.7276C222.352 80.4834 218.825 83.3636 215.285 86.4596C195.618 103.487 180.138 124.055 167.742 147.059C151.247 178.019 142.746 211.199 140.335 246.13C139.231 258.729 144.319 303.189 148.29 316.017C159.126 350.073 178.59 378.609 203.802 403.377C209.994 409.34 216.617 414.872 223.469 420.189C225.461 420.189 225.677 418.412 226.134 417.093C227.007 414.269 227.673 411.385 228.126 408.465L232.567 375.297L230.105 64.3311Z" fill="#6CAC48"/>
<path d="M240.941 429.896C241.385 424.821 243.821 420.608 246.473 416.409C243.808 415.305 241.829 413.11 240.281 410.661C238.946 408.342 237.841 405.899 236.982 403.365C233.886 394.077 233.226 384.332 232.338 374.842V369.094C231.234 369.982 231.006 377.493 231.006 378.61C230.36 388.641 229.029 398.616 227.021 408.466C226.362 412.45 225.918 416.421 223.469 419.961C223.469 420.405 223.469 420.85 223.684 421.509C227.669 433.233 228.76 445.173 229.432 457.341V461.782C229.432 467.086 229.217 465.969 233.619 467.746C235.396 468.406 237.375 468.634 239.152 469.954C240.484 469.954 240.7 468.85 240.7 467.961L240.04 460.666V440.314C239.824 436.761 240.484 433.233 240.928 429.909L240.941 429.896Z" fill="#C2BFBF"/>
</svg>
