<svg width="500" height="500" viewBox="0 0 500 500" fill="none" xmlns="http://www.w3.org/2000/svg">
<path d="M236.901 50.1077C236.041 50.1859 233.304 50.4596 230.841 50.6551C174.027 55.7773 120.811 86.4322 87.1066 133.549C68.3382 159.746 56.3343 189.462 51.7986 220.939C50.1955 231.926 50 235.171 50 250.069C50 264.966 50.1955 268.211 51.7986 279.199C62.6686 354.311 116.119 417.419 188.612 440.802C201.593 444.985 215.279 447.84 230.841 449.56C236.901 450.225 263.099 450.225 269.159 449.56C296.022 446.589 318.778 439.941 341.222 428.485C344.663 426.725 345.327 426.256 344.858 425.865C344.545 425.631 329.883 405.963 312.287 382.19L280.303 338.984L240.225 279.668C218.172 247.058 200.029 220.391 199.873 220.391C199.717 220.352 199.56 246.706 199.482 278.886C199.365 335.23 199.326 337.498 198.622 338.827C197.605 340.743 196.823 341.525 195.181 342.385C193.93 343.011 192.835 343.128 186.931 343.128H180.166L178.368 341.994C177.195 341.251 176.334 340.274 175.748 339.14L174.927 337.38L175.005 258.984L175.122 180.548L176.334 179.023C176.96 178.201 178.289 177.146 179.228 176.637C180.831 175.855 181.457 175.777 188.221 175.777C196.197 175.777 197.527 176.09 199.599 178.358C200.186 178.984 221.887 211.672 247.849 251.046C273.812 290.42 309.316 344.184 326.755 370.577L358.426 418.553L360.029 417.498C374.223 408.27 389.238 395.132 401.124 381.447C426.422 352.395 442.727 316.97 448.201 279.199C449.805 268.211 450 264.966 450 250.069C450 235.171 449.805 231.926 448.201 220.939C437.331 145.826 383.881 82.7176 311.388 59.3354C298.602 55.1907 284.995 52.3364 269.746 50.616C265.992 50.225 240.147 49.7949 236.901 50.1077ZM318.778 171.085C320.655 172.024 322.18 173.822 322.727 175.699C323.04 176.716 323.118 198.456 323.04 247.449L322.923 317.752L310.528 298.749L298.094 279.746V228.641C298.094 195.601 298.25 177.028 298.485 176.129C299.11 173.94 300.479 172.219 302.356 171.202C303.959 170.381 304.545 170.303 310.684 170.303C316.471 170.303 317.488 170.381 318.778 171.085Z" fill="#7B7979"/>
</svg>
