<svg width="500" height="500" viewBox="0 0 500 500" fill="none" xmlns="http://www.w3.org/2000/svg">
<g clip-path="url(#clip0_3010_118)">
<path d="M231.997 33.6343C242.873 27.3652 257.038 27.3369 267.905 33.6343C322.572 64.7423 377.257 95.8016 431.916 126.929C442.196 132.76 449.073 144.282 448.968 156.212V343.37C449.045 355.793 441.489 367.59 430.643 373.29C376.154 404.226 321.694 435.201 267.216 466.137C256.115 472.529 241.665 472.037 230.911 465.121C214.576 455.584 198.212 446.095 181.875 436.568C178.537 434.564 174.773 432.968 172.416 429.709C174.5 426.88 178.226 426.528 181.253 425.293C188.072 423.109 194.335 419.604 200.599 416.203C202.183 415.111 204.117 415.53 205.635 416.507C219.604 424.572 233.45 432.872 247.465 440.861C250.455 442.599 253.483 440.292 256.039 438.857C309.508 408.424 363.043 378.105 416.503 347.663C418.484 346.703 419.579 344.586 419.418 342.401C419.456 280.661 419.428 218.911 419.437 157.171C419.664 154.692 418.239 152.413 416.013 151.398C361.714 120.603 307.443 89.7606 253.153 58.9577C252.213 58.3065 251.098 57.9571 249.957 57.9554C248.815 57.9537 247.7 58.2999 246.758 58.9483C192.468 89.7606 138.206 120.631 83.9168 151.425C81.6985 152.441 80.2098 154.683 80.4738 157.171C80.4832 218.911 80.4738 280.661 80.4738 342.41C80.3797 343.476 80.6122 344.546 81.1401 345.475C81.6679 346.404 82.4658 347.148 83.4263 347.606C97.9137 355.88 112.42 364.095 126.917 372.34C135.084 376.767 145.111 379.397 154.109 376.005C162.05 373.137 167.616 364.977 167.464 356.487C167.539 295.108 167.427 233.719 167.52 172.349C167.322 169.625 169.889 167.373 172.519 167.63C179.48 167.583 186.451 167.535 193.412 167.649C196.317 167.583 198.317 170.517 197.957 173.262C197.929 235.03 198.032 296.799 197.911 358.567C197.929 375.028 191.214 392.94 176.094 400.995C157.466 410.713 134.443 408.652 116.041 399.334C100.11 391.326 84.9072 381.876 69.2591 373.298C58.3849 367.63 50.8662 355.785 50.9428 343.371V156.212C50.8287 144.035 57.9787 132.304 68.5795 126.557C123.058 95.5955 177.528 64.6102 231.997 33.6343Z" fill="#8CC84B"/>
<path d="M279.523 163.278C303.284 161.738 328.72 162.366 350.102 174.153C366.656 183.187 375.833 202.145 376.126 220.666C375.663 223.164 373.07 224.542 370.702 224.371C363.808 224.361 356.913 224.465 350.019 224.324C347.094 224.437 345.395 221.722 345.028 219.118C343.047 210.256 338.248 201.48 329.965 197.205C317.251 190.794 302.509 191.117 288.645 191.251C278.524 191.792 267.64 192.674 259.065 198.668C252.482 203.208 250.483 212.374 252.832 219.755C255.047 225.055 261.123 226.765 266.093 228.342C294.728 235.883 325.071 235.133 353.159 245.058C364.787 249.104 376.163 256.97 380.143 269.232C385.35 285.665 383.068 305.308 371.458 318.5C362.043 329.357 348.33 335.266 334.653 338.475C316.459 342.561 297.577 342.664 279.1 340.851C261.726 338.856 243.645 334.259 230.233 322.337C218.763 312.308 213.161 296.682 213.717 281.6C213.85 279.053 216.368 277.277 218.791 277.486C225.734 277.429 232.676 277.411 239.618 277.496C242.391 277.296 244.447 279.709 244.589 282.341C245.87 290.784 249.021 299.646 256.331 304.652C270.441 313.819 288.145 313.191 304.301 313.447C317.685 312.85 332.71 312.669 343.633 303.76C349.396 298.678 351.103 290.177 349.545 282.863C347.858 276.688 341.444 273.811 335.936 271.93C307.669 262.925 276.986 266.192 248.992 256.009C237.628 251.964 226.638 244.317 222.272 232.559C216.179 215.918 218.971 195.335 231.798 182.587C244.304 169.907 262.358 165.026 279.523 163.278Z" fill="#8CC84B"/>
</g>
<defs>
<clipPath id="clip0_3010_118">
<rect width="500" height="500" fill="white"/>
</clipPath>
</defs>
</svg>
