<svg width="500" height="500" viewBox="0 0 500 500" fill="none" xmlns="http://www.w3.org/2000/svg">
<mask id="mask0_3010_111" style="mask-type:luminance" maskUnits="userSpaceOnUse" x="50" y="55" width="400" height="390">
<path d="M450 55H50V445H450V55Z" fill="white"/>
</mask>
<g mask="url(#mask0_3010_111)">
<path d="M120.833 55.0391H379.167C418.333 55.0391 450 86.6992 450 125.858V374.14C450 413.299 418.333 444.959 379.167 444.959H120.833C81.6667 444.959 50 413.299 50 374.14V125.858C50 86.6992 81.6667 55.0391 120.833 55.0391Z" fill="#001E36"/>
<path d="M140 328.484V157.02C140 155.854 140.5 155.186 141.667 155.186C144.5 155.186 147.167 155.186 151 155.02C155 154.853 159.167 154.853 163.667 154.686C168.167 154.52 173 154.521 178.167 154.354C183.333 154.188 188.333 154.188 193.333 154.188C207 154.188 218.333 155.853 227.667 159.352C236 162.185 243.667 166.851 250 173.016C255.333 178.348 259.5 184.847 262.167 192.012C264.667 199.011 266 206.176 266 213.674C266 228.005 262.667 239.836 256 249.167C249.333 258.498 240 265.497 229.167 269.496C217.833 273.662 205.333 275.163 191.667 275.163C187.667 275.163 185 275.162 183.333 274.995C181.667 274.828 179.333 274.828 176.167 274.828V328.318C176.333 329.485 175.5 330.484 174.333 330.65H142C140.667 330.65 140 329.984 140 328.484ZM176.333 187.346V243.335C178.667 243.502 180.833 243.669 182.833 243.669H191.667C198.167 243.669 204.667 242.668 210.833 240.669C216.167 239.169 220.833 236.003 224.5 231.837C228 227.671 229.667 222.006 229.667 214.674C229.833 209.509 228.5 204.343 225.833 199.844C223 195.511 219 192.179 214.167 190.346C208 187.846 201.333 186.847 194.5 187.013C190.167 187.013 186.333 187.013 183.167 187.18C179.833 187.013 177.5 187.18 176.333 187.346ZM370 233.171C365 230.505 359.667 228.671 354 227.505C347.833 226.172 341.667 225.339 335.333 225.339C332 225.172 328.5 225.672 325.333 226.505C323.167 227.005 321.333 228.172 320.167 229.839C319.333 231.172 318.833 232.837 318.833 234.337C318.833 235.836 319.5 237.336 320.5 238.669C322 240.502 324 242.003 326.167 243.169C330 245.169 334 247.001 338 248.667C347 251.667 355.667 255.832 363.667 260.831C369.167 264.331 373.667 268.997 376.833 274.663C379.5 279.995 380.833 285.827 380.667 291.826C380.833 299.658 378.5 307.488 374.167 313.987C369.5 320.652 363 325.819 355.5 328.818C347.333 332.318 337.333 334.15 325.333 334.15C317.667 334.15 310.167 333.483 302.667 331.983C296.833 330.984 291 329.151 285.667 326.651C284.5 325.985 283.667 324.819 283.833 323.486V294.491C283.833 293.991 284 293.325 284.5 292.991C285 292.658 285.5 292.826 286 293.159C292.5 296.992 299.333 299.657 306.667 301.323C313 302.989 319.667 303.823 326.333 303.823C332.667 303.823 337.167 302.99 340.167 301.491C342.833 300.324 344.667 297.49 344.667 294.491C344.667 292.158 343.333 289.993 340.667 287.827C338 285.661 332.5 283.161 324.333 279.995C315.833 276.996 308 272.996 300.667 267.997C295.5 264.331 291.167 259.498 288 253.833C285.333 248.501 284 242.669 284.167 236.837C284.167 229.672 286.167 222.839 289.833 216.674C294 210.008 300.167 204.676 307.333 201.344C315.167 197.344 325 195.511 336.833 195.511C343.667 195.511 350.667 196.011 357.5 197.011C362.5 197.678 367.333 199.011 371.833 200.844C372.5 201.01 373.167 201.677 373.5 202.343C373.667 203.01 373.833 203.676 373.833 204.343V231.505C373.833 232.172 373.5 232.838 373 233.171C371.5 233.505 370.667 233.505 370 233.171Z" fill="#31A8FF"/>
</g>
</svg>
