<svg width="500" height="500" viewBox="0 0 500 500" fill="none" xmlns="http://www.w3.org/2000/svg">
<g clip-path="url(#clip0_3010_122)">
<path d="M475 250.418C475 220.607 437.668 192.356 380.432 174.837C393.64 116.5 387.77 70.0876 361.904 55.2283C355.942 51.7428 348.971 50.0917 341.358 50.0917V70.5463C345.577 70.5463 348.971 71.3718 351.814 72.9311C364.289 80.0856 369.7 107.328 365.481 142.366C364.472 150.989 362.821 160.069 360.803 169.333C342.825 164.931 323.196 161.537 302.558 159.335C290.175 142.366 277.334 126.957 264.401 113.473C294.303 85.6808 322.371 70.4545 341.449 70.4545V50C316.225 50 283.204 67.978 249.817 99.1643C216.429 68.1614 183.408 50.3669 158.184 50.3669V70.8214C177.171 70.8214 205.33 85.956 235.232 113.565C222.391 127.049 209.55 142.366 197.35 159.335C176.62 161.537 156.991 164.931 139.013 169.425C136.904 160.253 135.344 151.355 134.244 142.825C129.933 107.786 135.253 80.5442 147.636 73.298C150.387 71.647 153.965 70.9132 158.184 70.9132V50.4586C150.479 50.4586 143.508 52.1097 137.454 55.5952C111.68 70.4545 105.901 116.775 119.201 174.929C62.1484 192.54 25 220.699 25 250.418C25 280.228 62.3318 308.479 119.568 325.999C106.36 384.335 112.23 430.748 138.096 445.607C144.058 449.093 151.029 450.744 158.734 450.744C183.958 450.744 216.979 432.766 250.367 401.58C283.755 432.583 316.775 450.377 342 450.377C349.704 450.377 356.676 448.726 362.729 445.24C388.504 430.381 394.283 384.06 380.982 325.907C437.852 308.388 475 280.137 475 250.418ZM355.575 189.238C352.181 201.07 347.962 213.269 343.192 225.469C339.431 218.131 335.487 210.793 331.176 203.455C326.957 196.117 322.462 188.962 317.968 181.991C330.993 183.918 343.559 186.302 355.575 189.238ZM313.565 286.924C306.411 299.307 299.073 311.048 291.459 321.963C277.793 323.155 263.942 323.797 250 323.797C236.15 323.797 222.299 323.155 208.724 322.055C201.111 311.139 193.681 299.49 186.527 287.199C179.556 275.183 173.227 262.984 167.448 250.693C173.135 238.402 179.556 226.111 186.435 214.095C193.59 201.712 200.927 189.971 208.541 179.056C222.208 177.864 236.058 177.222 250 177.222C263.85 177.222 277.701 177.864 291.276 178.965C298.889 189.88 306.319 201.529 313.473 213.82C320.444 225.836 326.773 238.035 332.552 250.326C326.773 262.617 320.444 274.908 313.565 286.924ZM343.192 275C348.145 287.291 352.364 299.582 355.85 311.506C343.834 314.441 331.176 316.918 318.06 318.844C322.554 311.781 327.049 304.535 331.268 297.106C335.487 289.768 339.431 282.338 343.192 275ZM250.183 372.87C241.653 364.064 233.123 354.25 224.684 343.518C232.939 343.885 241.378 344.16 249.908 344.16C258.53 344.16 267.061 343.977 275.408 343.518C267.152 354.25 258.622 364.064 250.183 372.87ZM181.94 318.844C168.916 316.918 156.349 314.533 144.333 311.598C147.727 299.766 151.947 287.566 156.716 275.367C160.477 282.705 164.421 290.043 168.732 297.381C173.043 304.719 177.446 311.873 181.94 318.844ZM249.725 127.966C258.255 136.771 266.786 146.586 275.224 157.318C266.969 156.951 258.53 156.675 250 156.675C241.378 156.675 232.848 156.859 224.501 157.318C232.756 146.586 241.286 136.771 249.725 127.966ZM181.849 181.991C177.354 189.054 172.86 196.3 168.64 203.73C164.421 211.068 160.477 218.406 156.716 225.744C151.763 213.453 147.544 201.162 144.058 189.238C156.074 186.394 168.732 183.918 181.849 181.991ZM98.8382 296.83C66.3677 282.98 45.3628 264.819 45.3628 250.418C45.3628 236.017 66.3677 217.764 98.8382 204.005C106.726 200.611 115.349 197.585 124.246 194.741C129.474 212.719 136.353 231.431 144.884 250.601C136.445 269.68 129.658 288.3 124.521 306.186C115.44 303.343 106.818 300.224 98.8382 296.83ZM148.186 427.905C135.711 420.75 130.3 393.508 134.519 358.469C135.528 349.847 137.179 340.766 139.197 331.502C157.175 335.905 176.804 339.299 197.442 341.5C209.825 358.469 222.666 373.879 235.599 387.362C205.697 415.155 177.629 430.381 158.551 430.381C154.423 430.289 150.938 429.464 148.186 427.905ZM365.756 358.011C370.067 393.049 364.747 420.291 352.364 427.538C349.613 429.189 346.035 429.923 341.816 429.923C322.829 429.923 294.67 414.788 264.768 387.179C277.609 373.695 290.45 358.377 302.65 341.408C323.38 339.207 343.009 335.813 360.987 331.319C363.096 340.583 364.747 349.48 365.756 358.011ZM401.07 296.83C393.182 300.224 384.56 303.251 375.662 306.095C370.434 288.117 363.555 269.405 355.024 250.234C363.463 231.156 370.251 212.536 375.387 194.649C384.468 197.493 393.09 200.611 401.162 204.005C433.632 217.856 454.637 236.017 454.637 250.418C454.545 264.819 433.541 283.072 401.07 296.83Z" fill="#61DAFB"/>
<path d="M249.908 292.336C273.059 292.336 291.826 273.569 291.826 250.418C291.826 227.267 273.059 208.5 249.908 208.5C226.758 208.5 207.99 227.267 207.99 250.418C207.99 273.569 226.758 292.336 249.908 292.336Z" fill="#61DAFB"/>
</g>
<defs>
<clipPath id="clip0_3010_122">
<rect width="500" height="500" fill="white"/>
</clipPath>
</defs>
</svg>
