<svg width="500" height="500" viewBox="0 0 500 500" fill="none" xmlns="http://www.w3.org/2000/svg">
<g clip-path="url(#clip0_3010_126)">
<mask id="mask0_3010_126" style="mask-type:luminance" maskUnits="userSpaceOnUse" x="50" y="100" width="400" height="300">
<path d="M450 100H50V400H450V100Z" fill="white"/>
</mask>
<g mask="url(#mask0_3010_126)">
<path d="M394.219 272.343C380.235 272.422 368.126 275.781 357.969 280.782C354.219 273.36 350.469 266.875 349.845 262.032C349.142 256.407 348.283 252.968 349.142 246.25C350.001 239.531 353.907 230 353.907 229.218C353.828 228.515 353.047 225.078 345.001 225C336.954 224.921 330.001 226.562 329.219 228.671C328.438 230.781 326.876 235.625 325.86 240.625C324.454 247.968 309.766 273.984 301.407 287.656C298.672 282.343 296.329 277.656 295.859 273.905C295.157 268.281 294.297 264.842 295.157 258.125C296.016 251.405 299.922 241.875 299.922 241.093C299.844 240.39 299.063 236.953 291.017 236.875C282.969 236.796 276.017 238.437 275.236 240.546C274.454 242.656 273.595 247.656 271.876 252.5C270.235 257.343 250.704 300.781 245.626 312.109C243.047 317.89 240.783 322.5 239.141 325.625C237.501 328.75 239.063 325.859 238.907 326.171C237.501 328.828 236.719 330.312 236.719 330.312V330.391C235.626 332.344 234.454 334.218 233.906 334.218C233.515 334.218 232.734 328.984 234.062 321.797C236.953 306.718 243.984 283.203 243.907 282.344C243.907 281.953 245.234 277.812 239.375 275.703C233.672 273.594 231.641 277.11 231.172 277.11C230.703 277.11 230.312 278.36 230.312 278.36C230.312 278.36 236.64 251.876 218.203 251.876C206.64 251.876 190.703 264.454 182.812 275.939C177.812 278.673 167.187 284.453 155.937 290.626C151.64 292.97 147.187 295.47 142.968 297.735L142.11 296.796C119.766 272.968 78.438 256.093 80.1568 224.062C80.7818 212.421 84.8443 181.718 159.533 144.531C220.704 114.062 269.689 122.421 278.204 141.015C290.313 167.578 252.032 216.953 188.439 224.062C164.22 226.796 151.485 217.421 148.283 213.906C144.923 210.234 144.454 210.078 143.204 210.781C141.173 211.875 142.423 215.156 143.204 217.109C145.079 222.031 152.892 230.781 166.173 235.156C177.813 238.984 206.251 241.093 240.626 227.812C279.142 212.89 309.22 171.484 300.392 136.875C291.408 101.64 232.97 90.0776 177.736 109.687C144.844 121.406 109.219 139.687 83.5943 163.671C53.1255 192.109 48.2818 216.953 50.313 227.265C57.4232 264.062 108.126 288.046 128.438 305.781C127.422 306.327 126.485 306.874 125.626 307.343C115.469 312.343 76.7974 332.578 67.1099 353.983C56.1724 378.202 68.8286 395.625 77.2661 397.968C103.36 405.234 130.079 392.187 144.532 370.703C158.906 349.218 157.188 321.328 150.547 308.593L150.312 308.125L158.281 303.437C163.438 300.39 168.516 297.578 172.968 295.155C170.469 301.952 168.672 309.999 167.735 321.718C166.641 335.468 172.266 353.28 179.688 360.311C182.969 363.357 186.876 363.436 189.297 363.436C197.891 363.436 201.797 356.326 206.094 347.811C211.407 337.421 216.094 325.389 216.094 325.389C216.094 325.389 210.235 357.968 226.251 357.968C232.11 357.968 237.969 350.389 240.626 346.483V346.561C240.626 346.561 240.782 346.327 241.094 345.78C241.422 345.295 241.735 344.801 242.032 344.296V344.14C244.376 340.078 249.61 330.781 257.422 315.39C267.5 295.546 277.188 270.703 277.188 270.703C277.188 270.703 278.126 276.796 281.016 286.796C282.734 292.735 286.484 299.218 289.375 305.546C287.031 308.828 285.625 310.703 285.625 310.703L285.703 310.782C283.829 313.282 281.718 315.939 279.532 318.594C271.563 328.125 262.032 338.985 260.782 342.11C259.297 345.782 259.61 348.516 262.501 350.704C264.61 352.267 268.36 352.578 272.344 352.267C279.532 351.797 284.532 350.001 287.032 348.907C290.938 347.5 295.391 345.391 299.688 342.266C307.501 336.485 312.266 328.282 311.797 317.345C311.563 311.329 309.61 305.392 307.188 299.767C307.891 298.751 308.595 297.735 309.297 296.642C321.641 278.594 331.172 258.751 331.172 258.751C331.172 258.751 332.11 264.845 335.001 274.845C336.484 279.923 339.454 285.471 342.11 290.939C330.547 300.393 323.282 311.33 320.782 318.518C316.172 331.799 319.766 337.814 326.563 339.221C329.609 339.846 333.985 338.439 337.265 337.033C341.328 335.705 346.25 333.439 350.782 330.08C358.594 324.299 366.094 316.252 365.704 305.393C365.469 300.393 364.141 295.471 362.344 290.783C372.188 286.721 384.922 284.377 401.094 286.33C435.86 290.393 442.735 312.111 441.408 321.174C440.079 330.237 432.814 335.236 430.391 336.799C427.969 338.283 427.188 338.831 427.422 339.924C427.735 341.565 428.829 341.486 430.938 341.175C433.829 340.705 449.219 333.753 449.844 317.035C450.782 295.547 430.391 272.11 394.219 272.343ZM126.094 362.734C114.61 375.312 98.438 380.078 91.563 376.015C84.1411 371.718 87.031 353.203 101.172 339.843C109.766 331.718 120.938 324.218 128.282 319.609C129.922 318.593 132.422 317.11 135.391 315.312C135.86 315 136.172 314.843 136.172 314.843C136.719 314.531 137.344 314.14 137.969 313.75C143.204 332.812 138.204 349.531 126.094 362.734ZM210.079 305.625C206.094 315.39 197.657 340.468 192.579 339.062C188.203 337.89 185.547 318.906 191.718 300.156C194.843 290.702 201.484 279.453 205.39 275.077C211.719 268.046 218.593 265.702 220.313 268.592C222.344 272.343 212.579 299.531 210.079 305.625ZM279.376 338.75C277.657 339.61 276.094 340.234 275.391 339.766C274.844 339.453 276.093 338.282 276.093 338.282C276.093 338.282 284.765 328.985 288.203 324.688C290.156 322.189 292.5 319.298 295 316.016V316.953C295.001 328.203 284.219 335.703 279.376 338.75ZM332.812 326.562C331.562 325.625 331.719 322.734 335.937 313.671C337.579 310.078 341.328 304.062 347.812 298.359C348.594 300.703 349.063 302.968 348.984 305.078C348.907 319.14 338.907 324.375 332.812 326.562Z" fill="#CF649A"/>
</g>
</g>
<defs>
<clipPath id="clip0_3010_126">
<rect width="500" height="500" fill="white"/>
</clipPath>
</defs>
</svg>
