<svg width="500" height="500" viewBox="0 0 500 500" fill="none" xmlns="http://www.w3.org/2000/svg">
<g clip-path="url(#clip0_3010_133)">
<path d="M250 115C190.001 115 152.499 145.001 137.5 205C160 174.999 186.249 163.749 216.25 171.25C233.366 175.529 245.6 187.947 259.142 201.692C281.203 224.085 306.733 250 362.5 250C422.499 250 460.001 219.999 475 160C452.5 190.001 426.251 201.251 396.25 193.75C379.134 189.471 366.9 177.053 353.358 163.308C331.297 140.915 305.767 115 250 115ZM137.5 250C77.5006 250 39.9994 280.001 25 340C47.5 309.999 73.7494 298.749 103.75 306.25C120.866 310.529 133.1 322.947 146.642 336.692C168.703 359.085 194.233 385 250 385C309.999 385 347.501 354.999 362.5 295C340 325.001 313.751 336.251 283.75 328.75C266.634 324.471 254.4 312.053 240.858 298.308C218.797 275.915 193.267 250 137.5 250Z" fill="url(#paint0_linear_3010_133)"/>
</g>
<defs>
<linearGradient id="paint0_linear_3010_133" x1="-3175.26" y1="13386" x2="-1842.76" y2="28338.4" gradientUnits="userSpaceOnUse">
<stop stop-color="#2298BD"/>
<stop offset="1" stop-color="#0ED7B5"/>
</linearGradient>
<clipPath id="clip0_3010_133">
<rect width="500" height="500" fill="white"/>
</clipPath>
</defs>
</svg>
