<svg width="500" height="500" viewBox="0 0 500 500" fill="none" xmlns="http://www.w3.org/2000/svg">
<mask id="mask0_3010_2" style="mask-type:luminance" maskUnits="userSpaceOnUse" x="64" y="64" width="372" height="372">
<path d="M436 64H64V436H436V64Z" fill="white"/>
</mask>
<g mask="url(#mask0_3010_2)">
<path d="M64 250V64H436V436H64" fill="#007ACC"/>
<path d="M145.561 250.652V265.811H193.921V403.451H228.238V265.811H276.598V250.931C276.598 242.561 276.598 235.772 276.226 235.586C276.226 235.307 246.745 235.214 210.94 235.214L145.84 235.493V250.745L145.561 250.652ZM362.902 235.121C372.388 237.353 379.642 241.631 386.152 248.42C389.593 252.14 394.708 258.65 395.08 260.324C395.08 260.882 378.991 271.763 369.226 277.808C368.854 278.087 367.366 276.506 365.878 274.088C361.042 267.206 356.113 264.23 348.394 263.672C337.234 262.928 329.794 268.787 329.794 278.552C329.794 281.528 330.352 283.202 331.468 285.62C333.979 290.735 338.629 293.804 353.044 300.128C379.642 311.567 391.174 319.1 398.149 329.888C406.054 341.978 407.821 360.95 402.52 375.179C396.568 390.71 382.06 401.219 361.321 404.66C354.811 405.776 339.931 405.59 332.956 404.381C318.076 401.591 303.847 394.151 295.105 384.572C291.664 380.852 285.061 370.901 285.433 370.25L288.967 368.018L302.917 359.927L313.426 353.789L315.844 357.044C318.913 361.88 325.795 368.39 329.794 370.622C341.884 376.853 358.066 376.016 366.064 368.762C369.505 365.6 370.993 362.252 370.993 357.602C370.993 353.324 370.342 351.371 368.203 348.116C365.227 344.024 359.275 340.676 342.535 333.236C323.284 325.052 315.1 319.844 307.474 311.846C303.103 307.01 299.104 299.477 297.244 293.246C295.849 287.852 295.384 274.646 296.686 269.345C300.685 250.745 314.728 237.725 334.816 234.005C341.326 232.703 356.671 233.261 363.088 234.935L362.902 235.121Z" fill="white"/>
</g>
</svg>
