<svg width="500" height="500" viewBox="0 0 500 500" fill="none" xmlns="http://www.w3.org/2000/svg">
<g clip-path="url(#clip0_3010_10)">
<mask id="mask0_3010_10" style="mask-type:luminance" maskUnits="userSpaceOnUse" x="25" y="25" width="450" height="450">
<path d="M475 25H25V475H475V25Z" fill="white"/>
</mask>
<g mask="url(#mask0_3010_10)">
<path d="M249.999 25L448.862 137.5V362.5L249.999 475L51.1367 362.5V137.5L249.999 25Z" fill="white"/>
<path d="M413.35 354.737L256.562 443.424V374.349L354.25 320.612L413.35 354.737ZM424.075 345.024V159.549L366.7 192.662V311.874L424.075 345.024ZM86.0121 354.737L242.8 443.424V374.349L145.112 320.612L86.0121 354.737ZM75.2871 345.024V159.549L132.662 192.662V311.874L75.2871 345.024ZM81.9996 147.549L242.8 56.5742V123.362L139.787 180.024L139 180.474L81.9996 147.549ZM417.362 147.549L256.562 56.5742V123.362L359.575 180.024L360.362 180.474L417.362 147.549Z" fill="#8ED6FB"/>
<path d="M242.801 358.635L146.426 305.648V200.648L242.801 256.298V358.635ZM256.563 358.635L352.938 305.648V200.648L256.563 256.298V358.635ZM152.951 188.498L249.701 135.285L346.451 188.498L249.701 244.373L152.951 188.498Z" fill="#1C78C0"/>
</g>
</g>
<defs>
<clipPath id="clip0_3010_10">
<rect width="500" height="500" fill="white"/>
</clipPath>
</defs>
</svg>
